<?xml version="1.0" encoding="UTF-8" standalone="no"?>
<!-- Created with Inkscape (http://www.inkscape.org/) -->

<svg
   xmlns:dc="http://purl.org/dc/elements/1.1/"
   xmlns:cc="http://creativecommons.org/ns#"
   xmlns:rdf="http://www.w3.org/1999/02/22-rdf-syntax-ns#"
   xmlns:svg="http://www.w3.org/2000/svg"
   xmlns="http://www.w3.org/2000/svg"
   xmlns:xlink="http://www.w3.org/1999/xlink"
   xmlns:sodipodi="http://sodipodi.sourceforge.net/DTD/sodipodi-0.dtd"
   xmlns:inkscape="http://www.inkscape.org/namespaces/inkscape"
   width="640"
   height="960"
   id="svg2"
   version="1.1"
   inkscape:version="0.48.2 r9819"
   sodipodi:docname="start.svg">
  <defs
     id="defs4">
    <linearGradient
       id="linearGradient7142">
      <stop
         style="stop-color:#858585;stop-opacity:1"
         offset="0"
         id="stop7144" />
      <stop
         style="stop-color:#484848;stop-opacity:1"
         offset="1"
         id="stop7146" />
    </linearGradient>
    <linearGradient
       id="linearGradient7122"
       inkscape:collect="always">
      <stop
         id="stop7124"
         offset="0"
         style="stop-color:#292929;stop-opacity:1" />
      <stop
         id="stop7126"
         offset="1"
         style="stop-color:#000000;stop-opacity:1" />
    </linearGradient>
    <linearGradient
       inkscape:collect="always"
       id="linearGradient7087">
      <stop
         style="stop-color:#ffffff;stop-opacity:1;"
         offset="0"
         id="stop7089" />
      <stop
         style="stop-color:#8a8a8a;stop-opacity:1"
         offset="1"
         id="stop7091" />
    </linearGradient>
    <linearGradient
       inkscape:collect="always"
       id="linearGradient6311">
      <stop
         style="stop-color:#86bee7;stop-opacity:1"
         offset="0"
         id="stop6313" />
      <stop
         style="stop-color:#008c62;stop-opacity:1"
         offset="1"
         id="stop6315" />
    </linearGradient>
    <inkscape:perspective
       id="perspective3803"
       inkscape:persp3d-origin="372.04724 : 350.78739 : 1"
       inkscape:vp_z="744.09448 : 526.18109 : 1"
       inkscape:vp_y="0 : 1000 : 0"
       inkscape:vp_x="0 : 526.18109 : 1"
       sodipodi:type="inkscape:persp3d" />
    <linearGradient
       inkscape:collect="always"
       xlink:href="#linearGradient6311"
       id="linearGradient6317"
       x1="315.1676"
       y1="436.70023"
       x2="315.1676"
       y2="887.26904"
       gradientUnits="userSpaceOnUse" />
    <linearGradient
       inkscape:collect="always"
       xlink:href="#linearGradient7087"
       id="linearGradient7093"
       x1="270.72089"
       y1="789.72253"
       x2="284.86301"
       y2="945.28601"
       gradientUnits="userSpaceOnUse" />
    <linearGradient
       inkscape:collect="always"
       xlink:href="#linearGradient7087"
       id="linearGradient7112"
       x1="361.63461"
       y1="805.88495"
       x2="400.02042"
       y2="947.30634"
       gradientUnits="userSpaceOnUse" />
    <linearGradient
       inkscape:collect="always"
       xlink:href="#linearGradient7122"
       id="linearGradient7120"
       x1="191.92899"
       y1="737.19458"
       x2="228.29448"
       y2="880.63623"
       gradientUnits="userSpaceOnUse" />
    <linearGradient
       inkscape:collect="always"
       xlink:href="#linearGradient7142"
       id="linearGradient7148"
       x1="319"
       y1="543.36218"
       x2="319"
       y2="608.39294"
       gradientUnits="userSpaceOnUse"
       gradientTransform="translate(0,-80)" />
    <filter
       inkscape:collect="always"
       id="filter7158"
       x="-0.11169889"
       width="1.2233978"
       y="-0.59595104"
       height="2.1919021">
      <feGaussianBlur
         inkscape:collect="always"
         stdDeviation="8.7210217"
         id="feGaussianBlur7160" />
    </filter>
    <filter
       inkscape:collect="always"
       id="filter7184">
      <feGaussianBlur
         inkscape:collect="always"
         stdDeviation="5.0673994"
         id="feGaussianBlur7186" />
    </filter>
    <linearGradient
       inkscape:collect="always"
       xlink:href="#linearGradient7142"
       id="linearGradient7198"
       gradientUnits="userSpaceOnUse"
       x1="319"
       y1="543.36218"
       x2="319"
       y2="608.39294"
       gradientTransform="translate(0,9)" />
    <filter
       inkscape:collect="always"
       id="filter7212"
       x="-0.057407218"
       width="1.1148144"
       y="-0.44498744"
       height="1.8899749">
      <feGaussianBlur
         inkscape:collect="always"
         stdDeviation="5.1658087"
         id="feGaussianBlur7214" />
    </filter>
    <filter
       inkscape:collect="always"
       id="filter7262"
       x="-0.11536029"
       width="1.2307206"
       y="-0.42705715"
       height="1.8541143">
      <feGaussianBlur
         inkscape:collect="always"
         stdDeviation="7.2642811"
         id="feGaussianBlur7264" />
    </filter>
    <filter
       inkscape:collect="always"
       id="filter7290"
       x="-0.076906861"
       width="1.1538137"
       y="-0.28470477"
       height="1.5694095">
      <feGaussianBlur
         inkscape:collect="always"
         stdDeviation="4.8428541"
         id="feGaussianBlur7292" />
    </filter>
  </defs>
  <sodipodi:namedview
     id="base"
     pagecolor="#ffffff"
     bordercolor="#666666"
     borderopacity="1.0"
     inkscape:pageopacity="0.0"
     inkscape:pageshadow="2"
     inkscape:zoom="0.70710678"
     inkscape:cx="76.61443"
     inkscape:cy="494.33526"
     inkscape:document-units="px"
     inkscape:current-layer="layer1"
     showgrid="false"
     inkscape:window-width="1440"
     inkscape:window-height="769"
     inkscape:window-x="0"
     inkscape:window-y="0"
     inkscape:window-maximized="1" />
  <metadata
     id="metadata7">
    <rdf:RDF>
      <cc:Work
         rdf:about="">
        <dc:format>image/svg+xml</dc:format>
        <dc:type
           rdf:resource="http://purl.org/dc/dcmitype/StillImage" />
        <dc:title></dc:title>
      </cc:Work>
    </rdf:RDF>
  </metadata>
  <g
     inkscape:label="Layer 1"
     inkscape:groupmode="layer"
     id="layer1"
     transform="translate(0,-92.362183)">
    <rect
       style="fill:url(#linearGradient6317);fill-opacity:1;stroke:#6f2f25;stroke-width:2;stroke-miterlimit:4;stroke-opacity:1;stroke-dasharray:none"
       id="rect6309"
       width="648.51794"
       height="909.13733"
       x="-6.0609155"
       y="-3.6855278"
       transform="translate(0,92.362183)"
       ry="0" />
    <path
       style="fill:#058140;stroke:none;stroke-width:1px;stroke-linecap:butt;stroke-linejoin:miter;stroke-opacity:1;fill-opacity:1"
       d="M 8.4852814,885.04668 C -32.770211,743.62533 -80.37113,774.73802 -86.267027,774.73802 -38.811436,743.61959 -3.1721212,790.48857 25.455844,883.63247 12.201763,823.28072 -0.32919436,694.06731 -15.556349,723.82634 2.2778174,686.2609 30.418374,813.59772 55.154329,886.46089 49.903948,815.75021 48.154826,745.03954 21.213203,674.32886 78.435418,737.92641 69.889917,816.70113 82.024387,890.70354 81.024357,840.73466 71.126586,790.76578 94.752309,740.7969 c -0.81899,64.08715 4.676947,102.91458 11.313711,137.17871 3.70459,-27.82953 -3.45676,-58.37554 28.28427,-79.19596 -23.91865,30.99428 -6.66861,57.41426 1.41421,84.85282"
       id="path7218"
       inkscape:connector-curvature="0"
       transform="translate(0,92.362183)"
       sodipodi:nodetypes="ccccccccccc" />
    <path
       style="fill:#00c21f;fill-opacity:1;stroke:none"
       d="M 18.384776,964.68094 C -7.6360871,934.16447 -36.50472,907.44502 -84.852814,906.69819 -52.757147,910.4044 -26.285297,890.20939 19.79899,953.36724 11.880999,920.44084 6.7621001,889.61375 -15.556349,845.887 c 14.70803518,16.59473 28.129219,25.46834 53.740115,107.48024 4.131261,-36.41471 7.291905,-73.02354 -7.071068,-113.13709 23.398007,33.66733 25.788759,79.93902 31.112699,124.45079 -10.575768,-100.3475 -0.02904,-158.45 15.556349,-206.47518 -8.092507,61.34147 -15.740642,123.01621 5.656854,206.47518 -4.024901,-40.65936 2.379044,-74.68217 39.59798,-89.09545 -19.65821,26.87006 -37.932741,53.74011 -16.97056,80.61017 6.74273,-45.73482 24.6548,-43.06915 42.4264,-41.01219 -17.05637,4.9282 -28.08325,16.89081 -22.62741,48.08326"
       id="path7222"
       inkscape:connector-curvature="0"
       sodipodi:nodetypes="ccccccccccccc" />
    <text
       xml:space="preserve"
       style="font-size:81.23865508999998042px;font-style:normal;font-weight:bold;text-align:center;line-height:125%;letter-spacing:0px;word-spacing:0px;text-anchor:middle;fill:#ffffff;fill-opacity:1;stroke:#000000;font-family:Sans;-inkscape-font-specification:Sans Bold;stroke-opacity:1;stroke-width:2.29999999999999982;stroke-miterlimit:4;stroke-dasharray:none"
       x="321.53552"
       y="323.61459"
       id="text3004"
       sodipodi:linespacing="125%"><tspan
         sodipodi:role="line"
         x="321.53552"
         y="323.61459"
         id="tspan3012">Dead Panda</tspan></text>
    <path
       sodipodi:nodetypes="ccccccccccc"
       inkscape:connector-curvature="0"
       id="path7220"
       d="m 593.9697,954.78144 c 41.25549,-141.42135 88.8564,-110.30866 94.7523,-110.30866 -47.45559,-31.11843 -83.0949,15.75055 -111.72287,108.89445 13.25408,-60.35175 25.78504,-189.56516 41.0122,-159.80613 -17.83417,-37.56544 -45.97473,89.77138 -70.71068,162.63455 5.25038,-70.71068 6.9995,-141.42135 33.94112,-212.13203 -57.22221,63.59755 -48.67671,142.37227 -60.81118,216.37468 1.00003,-49.96888 10.8978,-99.93776 -12.72792,-149.90664 0.81899,64.08715 -4.67695,102.91458 -11.31371,137.17871 -3.70459,-27.82953 3.45676,-58.37554 -28.28427,-79.19596 23.91865,30.99428 6.66861,57.41426 -1.41421,84.85282"
       style="fill:#058140;fill-opacity:1;stroke:none" />
    <path
       style="fill:#00b21d;fill-opacity:1;stroke:none"
       d="m 485.07525,963.26673 c 23.74814,-84.317 -12.18097,-72.91949 -21.2132,-91.92389 13.88459,2.33354 51.35295,-10.67956 46.66904,91.92389 8.49346,-75.33886 20.73363,-111.33725 36.76956,-107.48023 -25.05836,29.78861 -6.34892,75.99015 -4.24264,115.96551 9.10873,-84.12294 9.23705,-197.43225 46.66904,-189.50462 -31.09163,30.82651 -24.0171,112.54124 -22.62741,186.67619 2.58017,-9.01407 3.25657,-124.51906 59.39697,-120.20815 -19.75956,12.7638 -55.73566,72.98675 -24.04163,132.93608 -0.95684,-53.30145 13.766,-70.01696 35.35533,-70.71068 -18.31981,22.15601 -22.17392,44.31203 -2.82842,66.46804 l 0,0"
       id="path7224"
       inkscape:connector-curvature="0"
       sodipodi:nodetypes="cccccccccccc" />
    <rect
       style="fill:#9e9e9e;fill-opacity:1;stroke:#5d5d5d;stroke-width:7.99912214;stroke-miterlimit:4;stroke-opacity:1;stroke-dasharray:none"
       id="rect4533"
       width="812.00092"
       height="197.00089"
       x="-88.797882"
       y="952.75977"
       inkscape:export-filename="/Users/keegan/Desktop/rock4x1.png"
       inkscape:export-xdpi="90"
       inkscape:export-ydpi="90"
       ry="20.5" />
    <path
       style="fill:#c5c5c5;fill-opacity:1;stroke:none"
       d="m -49.198527,971.05465 -16.399998,12.30011 4.099996,35.87504 -7.175,10.2499 17.425004,17.4251 -18.449996,43.05 10.24999,22.5498 -4.099996,15.3751 63.5499927,4.1 -2.049998,-18.45 27.6750083,15.375 36.899991,-12.3 30.749999,13.325 2.05,-18.4499 53.300004,22.5498 32.8,-22.5498 19.475,11.2749 -8.19999,6.15 46.12499,3.075 13.32501,-15.375 31.775,11.275 66.625,-11.275 21.525,8.2 18.44999,-15.375 14.35,18.45 36.90001,-4.1 -22.55001,-11.2751 77.9,17.4251 45.09999,-10.2501 -9.22499,-6.1499 c 0,0 50.22499,16.4 62.525,16.4 12.3,0 59.44999,-5.125 59.44999,-5.125 l -49.19999,-18.45 84.05,22.55 0,-55.35 -16.4,10.2501 24.59999,-51.25 -6.14999,-41.00017 -16.4,-4.09993 23.575,-19.47496 -60.475,11.27494 -5.12501,14.35 -39.97499,-15.37503 -4.1,14.35 -7.175,-18.44993 -43.05,16.40004 8.2,-15.37502 -88.15,-7.175 11.27501,17.42491 -46.125,-13.32497 -20.50001,9.22504 -34.85,-5.12496 3.07501,12.29996 -62.525,-20.49998 -29.72501,5.12496 19.475,13.32498 -58.42499,-15.37503 -30.75001,14.35 6.15001,-14.35 -57.4,2.05005 -15.37501,13.32498 -28.7,-16.40005 -61.500001,2.05005 12.300002,17.42506 -51.250005,-18.45009 -39.974996,-1.02502 -7.175,13.32513 z"
       id="path4551"
       inkscape:connector-curvature="0" />
    <g
       id="g4865"
       style="fill:#a3815e;fill-opacity:1;stroke:#55381f;stroke-opacity:1"
       transform="translate(-563.86096,-50.834576)" />
    <path
       inkscape:export-ydpi="90"
       inkscape:export-xdpi="90"
       inkscape:export-filename="/Users/keegan/Desktop/p8.png"
       style="fill:url(#linearGradient7093);fill-opacity:1;stroke:#000000;stroke-width:7.84100485000000003;stroke-miterlimit:4;stroke-opacity:1;stroke-dasharray:none"
       d="m 278.47748,946.90274 c -60.5262,5.58637 -88.63676,-35.61603 -93.39925,-87.21583 -4.7625,-51.59981 18.50095,-62.91393 79.02715,-68.5003 60.52483,-5.58625 110.57699,0.57179 115.33949,52.1716 4.7625,51.59973 -40.44255,97.95828 -100.96739,103.54453 z"
       id="path4357"
       inkscape:connector-curvature="0"
       sodipodi:nodetypes="sssss" />
    <path
       inkscape:export-ydpi="90"
       inkscape:export-xdpi="90"
       inkscape:export-filename="/Users/keegan/Desktop/p8.png"
       style="fill:#000000;fill-opacity:1;stroke:#000000;stroke-width:7.84260988;stroke-miterlimit:4;stroke-opacity:1"
       d="m 228.91696,796.08533 c -34.28143,7.68224 -47.47267,23.52275 -43.78144,63.51577 3.69134,39.99431 21.4614,73.7783 57.42757,84.33473 2.40587,-76.38599 1.81993,-141.11179 -13.64613,-147.8505 z"
       id="path4359"
       inkscape:connector-curvature="0"
       sodipodi:nodetypes="cscc" />
    <path
       inkscape:export-ydpi="90"
       inkscape:export-xdpi="90"
       inkscape:export-filename="/Users/keegan/Desktop/p8.png"
       style="fill:#000000;fill-opacity:1;stroke:#000000;stroke-width:7.84260941;stroke-miterlimit:4;stroke-opacity:1"
       d="m 357.14301,802.65974 c -14.99863,-4.39639 -23.33584,-13.24056 -43.30896,-12.43469 -13.00484,56.98186 12.15338,55.70231 -1.97085,149.83729 19.57078,-5.12058 24.99273,-11.60341 38.43822,-24.04213 z"
       id="path4363"
       inkscape:connector-curvature="0"
       sodipodi:nodetypes="ccccc" />
    <path
       inkscape:export-ydpi="90"
       inkscape:export-xdpi="90"
       inkscape:export-filename="/Users/keegan/Desktop/p8.png"
       style="fill:#000000;fill-opacity:1;stroke:#666666;stroke-width:6.79493713px;stroke-linecap:round;stroke-linejoin:miter;stroke-opacity:1"
       d="m 310.50134,873.59331 -0.002,1.9e-4 c -43.93856,-6.80565 -89.48772,54.66396 -49.64099,96.45805 24.70672,25.91434 32.08353,11.82085 24.96231,-6.70451 -17.91887,-46.61209 7.50726,-31.24435 30.95633,-38.03334"
       id="path4377"
       inkscape:connector-curvature="0"
       sodipodi:nodetypes="ccssc" />
    <path
       inkscape:export-ydpi="90"
       inkscape:export-xdpi="90"
       inkscape:export-filename="/Users/keegan/Desktop/p8.png"
       inkscape:connector-curvature="0"
       id="path4365"
       d="m 395.29454,752.57276 c -7.42469,0 -13.59552,26.81056 -13.90893,60.4779 l 27.46117,0 c -0.31375,-33.66665 -6.12776,-60.4779 -13.55224,-60.4779 z"
       style="fill:#000000;fill-opacity:1;stroke:#000000;stroke-width:10.44130707;stroke-miterlimit:4;stroke-opacity:1;stroke-dasharray:none" />
    <path
       inkscape:export-ydpi="90"
       inkscape:export-xdpi="90"
       inkscape:export-filename="/Users/keegan/Desktop/p8.png"
       style="fill:url(#linearGradient7112);fill-opacity:1;stroke:#000000;stroke-width:12.34895610999999960;stroke-miterlimit:4;stroke-opacity:1"
       d="m 301.79909,887.12046 c 0,52.1706 6.69669,66.86644 62.9964,66.86644 56.29965,0 108.81197,-12.5727 108.81197,-64.74331 0,-52.1706 -45.63995,-94.4631 -101.93967,-94.4631 -56.29971,0 -69.8687,40.17004 -69.8687,92.33997 z"
       id="path4367"
       inkscape:connector-curvature="0"
       sodipodi:nodetypes="sssss" />
    <path
       inkscape:export-ydpi="90"
       inkscape:export-xdpi="90"
       inkscape:export-filename="/Users/keegan/Desktop/p8.png"
       style="fill:#000000;fill-opacity:1;stroke:#000000;stroke-width:10.43663979;stroke-linejoin:miter;stroke-miterlimit:4;stroke-opacity:1;stroke-dasharray:none"
       d="m 339.23667,757.22165 c -7.20055,1.67814 -8.16792,36.62784 0.38758,69.34913 8.58939,-7.27512 17.40813,-13.91316 28.67011,-13.75868 -9.16325,-32.57911 -21.85729,-57.2679 -29.05769,-55.59045 z"
       id="path4369"
       inkscape:connector-curvature="0"
       inkscape:transform-center-x="-3.4467059"
       inkscape:transform-center-y="-5.8796794"
       sodipodi:nodetypes="cccc" />
    <path
       inkscape:export-ydpi="90"
       inkscape:export-xdpi="90"
       inkscape:export-filename="/Users/keegan/Desktop/p8.png"
       sodipodi:type="arc"
       style="fill:#000000;fill-opacity:1;stroke:#000000;stroke-width:0.94999999;stroke-linejoin:miter;stroke-miterlimit:4;stroke-opacity:1;stroke-dasharray:none"
       id="path4371"
       sodipodi:cx="26.830357"
       sodipodi:cy="992.69232"
       sodipodi:rx="1.4732143"
       sodipodi:ry="2.3837109"
       d="m 28.303571,992.69232 a 1.4732143,2.3837109 0 1 1 -2.946429,0 1.4732143,2.3837109 0 1 1 2.946429,0 z"
       transform="matrix(11.331033,1.3605651,-1.2607753,10.499966,1316.3077,-9590.1029)" />
    <path
       inkscape:export-ydpi="90"
       inkscape:export-xdpi="90"
       inkscape:export-filename="/Users/keegan/Desktop/p8.png"
       sodipodi:type="arc"
       style="fill:#ffffff;fill-opacity:1;stroke:none"
       id="path4373"
       sodipodi:cx="11.651786"
       sodipodi:cy="991.51398"
       sodipodi:rx="0.58035713"
       sodipodi:ry="0.58035713"
       d="m 12.232143,991.51398 a 0.58035713,0.58035713 0 1 1 -1.160714,0 0.58035713,0.58035713 0 1 1 1.160714,0 z"
       transform="matrix(17.432358,2.093177,-1.9396542,16.153793,2090.5477,-15181.433)" />
    <path
       inkscape:export-ydpi="90"
       inkscape:export-xdpi="90"
       inkscape:export-filename="/Users/keegan/Desktop/p8.png"
       inkscape:transform-center-y="-1.4192109"
       transform="matrix(2.0675188,-5.6892762,6.0301367,7.9904408,-5614.9391,-6937.9007)"
       d="m 28.303571,992.69232 a 1.4732143,2.3837109 0 1 1 -2.946429,0 1.4732143,2.3837109 0 1 1 2.946429,0 z"
       sodipodi:ry="2.3837109"
       sodipodi:rx="1.4732143"
       sodipodi:cy="992.69232"
       sodipodi:cx="26.830357"
       id="path4379"
       style="fill:#000000;fill-opacity:1;stroke:#000000;stroke-width:0.94999999;stroke-linejoin:miter;stroke-miterlimit:4;stroke-opacity:1;stroke-dasharray:none"
       sodipodi:type="arc" />
    <path
       inkscape:export-ydpi="90"
       inkscape:export-xdpi="90"
       inkscape:export-filename="/Users/keegan/Desktop/p8.png"
       inkscape:transform-center-y="-2.5730479"
       inkscape:transform-center-x="0.82931145"
       transform="matrix(3.1807979,-8.7527323,9.2771323,12.292985,-8811.6229,-11248.214)"
       d="m 12.232143,991.51398 a 0.58035713,0.58035713 0 1 1 -1.160714,0 0.58035713,0.58035713 0 1 1 1.160714,0 z"
       sodipodi:ry="0.58035713"
       sodipodi:rx="0.58035713"
       sodipodi:cy="991.51398"
       sodipodi:cx="11.651786"
       id="path4381"
       style="fill:#ffffff;fill-opacity:1;stroke:none"
       sodipodi:type="arc" />
    <path
       inkscape:export-ydpi="90"
       inkscape:export-xdpi="90"
       inkscape:export-filename="/Users/keegan/Desktop/p8.png"
       sodipodi:nodetypes="sssss"
       inkscape:connector-curvature="0"
       id="path4383"
       d="m 435.08965,885.1853 c 4.12904,7.81718 1.13928,17.50117 -6.67769,21.63055 -7.81705,4.1287 -17.50117,1.13881 -21.63021,-6.67769 -4.12897,-7.81718 0.67331,-14.0697 8.49015,-18.19908 7.81698,-4.1287 15.68877,-4.57028 19.81775,3.24622 z"
       style="fill:#000000;fill-opacity:1;stroke:none" />
    <path
       inkscape:export-ydpi="90"
       inkscape:export-xdpi="90"
       inkscape:export-filename="/Users/keegan/Desktop/p8.png"
       sodipodi:nodetypes="cc"
       inkscape:connector-curvature="0"
       id="path4385"
       d="m 419.75297,929.53189 c -25.58576,-17.58183 -39.27205,-1.09028 -39.27205,-1.09028"
       style="fill:none;stroke:#000000;stroke-width:7.76103401px;stroke-linecap:butt;stroke-linejoin:miter;stroke-opacity:1" />
    <path
       inkscape:export-ydpi="90"
       inkscape:export-xdpi="90"
       inkscape:export-filename="/Users/keegan/Desktop/p8.png"
       style="fill:url(#linearGradient7120);fill-opacity:1;stroke:#555555;stroke-width:7.50527191000000027;stroke-linecap:round;stroke-opacity:1"
       d="m 237.54464,849.57388 c -16.10821,-14.16676 21.93528,-88.80527 -6.74523,-114.8024 -15.9605,-8.94369 -46.8288,-0.0821 -67.79732,13.34239 -31.96015,28.36566 25.58917,47.09655 42.5953,20.01394 -9.83941,28.45588 -25.38431,47.79035 -23.07169,96.17609"
       id="path4353"
       inkscape:connector-curvature="0"
       sodipodi:nodetypes="ccccc" />
    <path
       inkscape:export-ydpi="90"
       inkscape:export-xdpi="90"
       inkscape:export-filename="/Users/keegan/Desktop/p8.png"
       sodipodi:nodetypes="ccccc"
       inkscape:connector-curvature="0"
       id="path4387"
       d="m 236.22212,893.79896 c -31.33067,9.79814 -24.68353,-43.59877 -34.84047,-51.34281 -20.61471,-14.92551 -60.30284,-16.00554 -67.12025,5.9374 -13.01237,28.34788 33.19425,32.92637 41.7574,16.74583 -14.42091,63.16635 18.68332,106.88747 51.18553,61.4636"
       style="fill:#000000;fill-opacity:1;stroke:#555555;stroke-width:7.50527191;stroke-opacity:1" />
    <path
       sodipodi:type="arc"
       style="fill:#000000;fill-opacity:1;stroke:#446dd8;stroke-width:5;stroke-miterlimit:4;stroke-opacity:1;stroke-dasharray:none"
       id="path7128"
       sodipodi:cx="371.96429"
       sodipodi:cy="768.03571"
       sodipodi:rx="4.1071429"
       sodipodi:ry="4.1071429"
       d="m 376.07144,768.03571 a 4.1071429,4.1071429 0 1 1 -8.21429,0 4.1071429,4.1071429 0 1 1 8.21429,0 z"
       transform="translate(1.4285714,93.790754)" />
    <path
       transform="matrix(0.42898683,-0.15781027,0.34524782,0.93851156,-0.35307423,179.00157)"
       d="m 376.07144,768.03571 a 4.1071429,4.1071429 0 1 1 -8.21429,0 4.1071429,4.1071429 0 1 1 8.21429,0 z"
       sodipodi:ry="4.1071429"
       sodipodi:rx="4.1071429"
       sodipodi:cy="768.03571"
       sodipodi:cx="371.96429"
       id="path7130"
       style="fill:#000000;fill-opacity:1;stroke:#446dd8;stroke-width:2.95820212;stroke-miterlimit:4;stroke-opacity:1;stroke-dasharray:none"
       sodipodi:type="arc" />
    <path
       sodipodi:type="arc"
       style="fill:#606060;fill-opacity:1;stroke:#000000;stroke-width:2;stroke-miterlimit:4;stroke-opacity:1;stroke-dasharray:none"
       id="path7132"
       sodipodi:cx="414.18781"
       sodipodi:cy="802.84552"
       sodipodi:rx="2.6516504"
       sodipodi:ry="2.6516504"
       d="m 416.83946,802.84552 a 2.6516504,2.6516504 0 1 1 -5.30331,0 2.6516504,2.6516504 0 1 1 5.30331,0 z"
       transform="translate(0,92.362183)" />
    <path
       transform="translate(11.667262,86.351775)"
       d="m 416.83946,802.84552 a 2.6516504,2.6516504 0 1 1 -5.30331,0 2.6516504,2.6516504 0 1 1 5.30331,0 z"
       sodipodi:ry="2.6516504"
       sodipodi:rx="2.6516504"
       sodipodi:cy="802.84552"
       sodipodi:cx="414.18781"
       id="path7134"
       style="fill:#606060;fill-opacity:1;stroke:#000000;stroke-width:2;stroke-miterlimit:4;stroke-opacity:1;stroke-dasharray:none"
       sodipodi:type="arc" />
    <rect
       style="fill:url(#linearGradient7148);fill-opacity:1;stroke:#313131;stroke-width:3;stroke-miterlimit:4;stroke-opacity:1;stroke-dasharray:none"
       id="rect7136"
       width="287"
       height="63"
       x="180"
       y="463.36218"
       ry="9" />
    <text
       sodipodi:linespacing="125%"
       id="text7150"
       y="505.36218"
       x="229.63281"
       style="font-size:36px;font-style:normal;font-weight:bold;line-height:125%;letter-spacing:0px;word-spacing:0px;fill:#000000;fill-opacity:1;stroke:none;filter:url(#filter7158);font-family:Sans;-inkscape-font-specification:Sans Bold"
       xml:space="preserve"><tspan
         y="505.36218"
         x="229.63281"
         id="tspan7152"
         sodipodi:role="line">Try Again</tspan></text>
    <text
       xml:space="preserve"
       style="font-size:36px;font-style:normal;font-weight:bold;line-height:125%;letter-spacing:0px;word-spacing:0px;fill:#ffffff;fill-opacity:1;stroke:none;font-family:Sans;-inkscape-font-specification:Sans Bold"
       x="229.63281"
       y="505.36218"
       id="text7138"
       sodipodi:linespacing="125%"><tspan
         sodipodi:role="line"
         id="tspan7140"
         x="229.63281"
         y="505.36218">Try Again</tspan></text>
    <rect
       ry="9"
       y="552.36218"
       x="180"
       height="63"
       width="287"
       id="rect7188"
       style="fill:url(#linearGradient7198);fill-opacity:1;stroke:#313131;stroke-width:3;stroke-miterlimit:4;stroke-opacity:1;stroke-dasharray:none" />
    <text
       xml:space="preserve"
       style="font-size:36px;font-style:normal;font-weight:bold;line-height:125%;letter-spacing:0px;word-spacing:0px;fill:#000000;fill-opacity:1;stroke:none;filter:url(#filter7212);font-family:Sans;-inkscape-font-specification:Sans Bold"
       x="212.21289"
       y="595.36218"
       id="text7200"
       sodipodi:linespacing="125%"><tspan
         sodipodi:role="line"
         id="tspan7202"
         x="212.21289"
         y="595.36218">Main Menu</tspan></text>
    <text
       sodipodi:linespacing="125%"
       id="text7194"
       y="595.36218"
       x="212.21289"
       style="font-size:36px;font-style:normal;font-weight:bold;line-height:125%;letter-spacing:0px;word-spacing:0px;fill:#ffffff;fill-opacity:1;stroke:none;font-family:Sans;-inkscape-font-specification:Sans Bold"
       xml:space="preserve"><tspan
         y="595.36218"
         x="212.21289"
         id="tspan7196"
         sodipodi:role="line">Main Menu</tspan></text>
    <text
       transform="matrix(2.8356143,0,0,2.8356143,-85.421451,-886.57844)"
       sodipodi:linespacing="125%"
       id="text7274"
       y="407.4808"
       x="66.46804"
       style="font-size:56px;font-style:normal;font-weight:normal;line-height:125%;letter-spacing:0px;word-spacing:0px;fill:#ffffff;fill-opacity:1;stroke:none;filter:url(#filter7290);font-family:Sans"
       xml:space="preserve"><tspan
         y="407.4808"
         x="66.46804"
         id="tspan7276"
         sodipodi:role="line">DEAD</tspan></text>
  </g>
</svg>
